<?xml version="1.0" encoding="UTF-8" standalone="no"?>
<svg
   xmlns:dc="http://purl.org/dc/elements/1.1/"
   xmlns:cc="http://creativecommons.org/ns#"
   xmlns:rdf="http://www.w3.org/1999/02/22-rdf-syntax-ns#"
   xmlns:svg="http://www.w3.org/2000/svg"
   xmlns="http://www.w3.org/2000/svg"
   viewBox="0 0 800 800"
   height="800"
   width="800"
   xml:space="preserve"
   id="svg2"
   version="1.1"><metadata
     id="metadata8"><rdf:RDF><cc:Work
         rdf:about=""><dc:format>image/svg+xml</dc:format><dc:type
           rdf:resource="http://purl.org/dc/dcmitype/StillImage" /></cc:Work></rdf:RDF></metadata><defs
     id="defs6" /><g
     transform="matrix(1.3333333,0,0,-1.3333333,0,800)"
     id="g10"><g
       transform="scale(0.1)"
       id="g12"><path
         id="path14"
         style="fill:#ffffff;fill-opacity:1;fill-rule:nonzero;stroke:none"
         d="M 0,0 H 6000 V 6000 H 0 Z" /><path
         id="path16"
         style="fill:#f0f6f7;fill-opacity:1;fill-rule:nonzero;stroke:none"
         d="m 3000,365.563 c -989.41,0 -1791.49,55.566 -1791.49,124.128 0,68.547 802.08,124.118 1791.49,124.118 989.41,0 1791.49,-55.571 1791.49,-124.118 0,-68.562 -802.08,-124.128 -1791.49,-124.128" /><path
         id="path18"
         style="fill:#009ac4;fill-opacity:1;fill-rule:nonzero;stroke:none"
         d="m 3978.29,1773.24 c -8.63,-8.31 -17.18,-16.79 -25.91,-24.92 -5.7,-5.29 -11.43,-10.52 -17.19,-15.7 -7.97,-7.17 -15.98,-14.27 -24.02,-21.33 -1.83,-1.63 -3.65,-3.26 -5.47,-4.9 -2.25,-2.03 -4.5,-4.06 -6.76,-6.09 -3.77,-3.4 -7.55,-6.78 -11.37,-10.11 -17.61,-15.1 -35.39,-29.76 -53.35,-44.16 -4.43,-3.67 -8.72,-7.41 -13.24,-10.99 -22.41,-17.89 -45.15,-35.18 -68.13,-52.04 -4.08,-3 -8.19,-5.86 -12.31,-8.71 -1.43,-0.99 -2.86,-1.98 -4.29,-2.97 -1.37,-0.94 -2.73,-1.89 -4.09,-2.84 -11.77,-8.47 -23.59,-16.9 -35.52,-25.15 -4.52,-3.13 -9.06,-6.24 -13.62,-9.31 -9.07,-6.16 -18.29,-11.88 -27.44,-17.86 -4.62,-3.02 -9.25,-6.03 -13.88,-9.03 21.35,33.98 42.22,69.55 62.4,107.08 48.61,90.39 93.66,190.83 134.22,300.21 l -242.95,132.16 c -40.57,-109.37 -85.61,-209.82 -134.22,-300.21 -33.93,-63.08 -69.6,-121.26 -106.69,-174.17 -29.19,-41.63 -59.27,-79.99 -90.08,-114.9 -26.7,-30.25 -53.95,-57.91 -81.65,-82.85 -26.25,-23.63 -52.9,-44.82 -79.87,-63.48 -29.42,-20.35 -59.23,-37.68 -89.32,-51.86 -12.45,-5.88 -24.96,-11.21 -37.51,-15.99 l 242.95,-132.17 c 12.55,4.79 25.06,10.12 37.52,15.99 30.08,14.19 59.89,31.52 89.31,51.86 26.98,18.66 53.63,39.86 79.87,63.48 27.71,24.95 54.96,52.6 81.66,82.85 13.76,15.6 27.36,32 40.82,48.96 l 172.54,-93.86 c 9.92,5.17 19.75,10.33 29.48,15.57 10.68,5.74 21.28,11.47 31.88,17.38 14.26,7.99 28.36,16.33 42.38,24.66 10.09,6.02 20.25,11.88 30.26,18.08 14.78,9.07 29.31,18.57 43.83,28.08 9.15,5.98 18.38,11.7 27.44,17.86 4.56,3.07 9.1,6.18 13.63,9.31 11.92,8.25 23.74,16.68 35.51,25.14 1.36,0.96 2.73,1.9 4.09,2.85 1.43,0.99 2.86,1.97 4.29,2.96 4.13,2.86 8.23,5.72 12.31,8.71 22.99,16.86 45.73,34.16 68.13,52.04 4.52,3.59 8.81,7.33 13.24,10.99 17.96,14.41 35.74,29.07 53.35,44.17 3.82,3.32 7.6,6.71 11.37,10.1 2.26,2.03 4.51,4.07 6.77,6.1 1.82,1.64 3.64,3.27 5.46,4.9 8.04,7.06 16.05,14.15 24.02,21.33 5.76,5.18 11.49,10.41 17.2,15.69 8.72,8.13 17.27,16.62 25.9,24.92 9.42,9.07 18.82,18.13 28.14,27.36 l -246.44,134.12 c -9.32,-9.23 -15.23,-20.25 -24.65,-29.31" /><path
         id="path20"
         style="fill:#009ac4;fill-opacity:1;fill-rule:nonzero;stroke:none"
         d="m 4123.88,2034.49 -242.95,132.17 c -11.14,6.06 -22.39,11.98 -33.75,17.76 l 242.95,-132.16 c 11.36,-5.78 22.61,-11.71 33.75,-17.77" /><path
         id="path22"
         style="fill:#009ac4;fill-opacity:1;fill-rule:nonzero;stroke:none"
         d="m 4697.34,3547.41 -687.17,-96.58 242.96,-132.16 687.17,96.58 -242.96,132.16" /><path
         id="path24"
         style="fill:#009ac4;fill-opacity:1;fill-rule:nonzero;stroke:none"
         d="m 2708.35,1226.42 c -31.21,8.07 -62.06,19.64 -92.43,34.58 -6.62,3.26 -13.22,6.67 -19.79,10.25 l 242.95,-132.17 c 6.57,-3.57 13.17,-6.99 19.79,-10.24 30.37,-14.95 61.23,-26.51 92.43,-34.59 21.65,-5.6 43.46,-9.52 65.41,-11.72 l -242.95,132.16 c -21.95,2.2 -43.76,6.12 -65.41,11.73" /><path
         id="path26"
         style="fill:#009ac4;fill-opacity:1;fill-rule:nonzero;stroke:none"
         d="m 3789.9,2165.92 c 40.33,-10.47 80.02,-22.52 118.98,-36.14 l -242.95,132.17 c -38.96,13.62 -78.65,25.67 -118.99,36.13 -179.59,46.6 -371.92,61.86 -568.87,45.01 l 242.96,-132.16 c 196.94,16.84 389.28,1.59 568.87,-45.01" /><path
         id="path28"
         style="fill:#009ac4;fill-opacity:1;fill-rule:nonzero;stroke:none"
         d="m 2243.22,1250.12 -0.51,0.13 c -2.45,0.64 -4.91,1.27 -7.37,1.91 -8.15,2.12 -16.33,4.26 -24.46,6.51 -14.15,4.01 -28.14,8.39 -42.13,12.78 -10.16,3.18 -20.31,6.18 -30.29,9.57 -14.68,4.94 -29.18,10.36 -43.59,15.7 -9.22,3.41 -18.43,6.62 -27.56,10.23 -16.46,6.44 -32.66,13.47 -48.87,20.59 -6.91,2.99 -13.91,5.69 -20.73,8.88 -14.57,6.56 -29.01,13.39 -43.36,20.46 -7.25,3.56 -14.47,7.21 -21.68,10.89 l -16.23,8.82 c -8.03,4.23 -16.04,8.49 -24.03,12.83 l 242.96,-132.16 c 3.23,-1.76 6.49,-3.46 9.74,-5.2 l 25.24,-13.73 2.34,-1.25 c 8.18,-4.19 16.38,-8.32 24.61,-12.37 14.35,-7.06 28.79,-13.9 43.37,-20.45 6.82,-3.19 13.81,-5.9 20.72,-8.89 16.21,-7.12 32.41,-14.15 48.87,-20.59 9.14,-3.6 18.35,-6.82 27.56,-10.22 14.42,-5.34 28.91,-10.77 43.59,-15.7 9.98,-3.39 20.13,-6.39 30.29,-9.57 13.99,-4.39 27.98,-8.78 42.14,-12.78 8.12,-2.25 16.3,-4.4 24.45,-6.51 2.46,-0.64 4.92,-1.28 7.38,-1.91 l 0.5,-0.13 c 9.72,-2.53 19.46,-4.87 29.27,-7.21 l -242.95,132.17 c -9.82,2.33 -19.55,4.68 -29.27,7.2" /><path
         id="path30"
         style="fill:#009ac4;fill-opacity:1;fill-rule:nonzero;stroke:none"
         d="m 4081.72,4570.71 c 50.66,45.61 98.41,93.78 143.09,144.37 10.26,11.62 20.36,23.37 30.3,35.24 l -242.96,132.16 c -9.93,-11.87 -20.03,-23.62 -30.29,-35.24 -44.68,-50.58 -92.43,-98.76 -143.09,-144.36 -19.68,-17.72 -39.79,-35.05 -60.34,-51.98 l 242.96,-132.16 c 20.54,16.93 40.65,34.26 60.33,51.97" /><path
         id="path32"
         style="fill:#009ac4;fill-opacity:1;fill-rule:nonzero;stroke:none"
         d="m 2979.86,3306.03 242.96,-132.16 827.96,116.36 -242.96,132.17 -827.96,-116.37" /><path
         id="path34"
         style="fill:#009ac4;fill-opacity:1;fill-rule:nonzero;stroke:none"
         d="m 4082.4,4857.16 c -3.07,1.67 -6.11,3.42 -9.16,5.08 l -242.96,132.17 c 3.06,-1.67 6.1,-3.42 9.17,-5.09 l 242.95,-132.16" /><path
         id="path36"
         style="fill:#009ac4;fill-opacity:1;fill-rule:nonzero;stroke:none"
         d="m 2775.8,2314.67 c -160.97,-31.48 -318.93,-83.53 -469.45,-154.51 -75.06,-35.39 -148.26,-75.48 -219.06,-120.08 l 242.95,-132.16 c 70.8,44.59 144,84.69 219.06,120.08 150.52,70.97 308.49,123.03 469.45,154.5 l -242.95,132.17" /><path
         id="path38"
         style="fill:#009ac4;fill-opacity:1;fill-rule:nonzero;stroke:none"
         d="m 2046.11,1693.01 c 33.1,29.8 67.28,58.61 102.5,86.38 l -242.96,132.17 c -35.22,-27.78 -69.39,-56.59 -102.5,-86.39 -57.85,-52.09 -112.44,-107.21 -163.61,-165.15 -15.63,-17.7 -30.94,-35.66 -45.93,-53.88 l 242.95,-132.17 c 14.99,18.22 30.3,36.18 45.93,53.88 51.17,57.95 105.76,113.07 163.62,165.16" /><path
         id="path40"
         style="fill:#009ac4;fill-opacity:1;fill-rule:nonzero;stroke:none"
         d="m 3634.09,4272.99 c 71.76,33.84 141.57,72.47 208.83,115.64 l -242.96,132.16 C 3532.71,4477.63 3462.9,4439 3391.14,4405.16 3259.92,4343.27 3122.2,4297.4 2981.65,4269.07 L 3224.6,4136.9 c 140.55,28.33 278.28,74.21 409.49,136.09" /><path
         id="path42"
         style="fill:#009ac4;fill-opacity:1;fill-rule:nonzero;stroke:none"
         d="m 1949.63,3161.24 242.95,-132.16 827.96,116.36 -242.95,132.17 -827.96,-116.37" /><path
         id="path44"
         style="fill:#009ac4;fill-opacity:1;fill-rule:nonzero;stroke:none"
         d="m 4176.56,5064.7 c 10.39,-5.37 20.72,-10.85 31,-16.44 l -242.96,132.16 c -10.27,5.59 -20.61,11.07 -30.99,16.44 -9.82,5.07 -19.69,10.05 -29.6,14.93 l 242.96,-132.16 c 9.91,-4.88 19.77,-9.86 29.59,-14.93" /><path
         id="path46"
         style="fill:#009ac4;fill-opacity:1;fill-rule:nonzero;stroke:none"
         d="m 2524.05,4149.53 c 157.16,-40.79 325.54,-54.79 498.28,-41.05 l -242.95,132.16 c -172.74,-13.73 -341.12,0.26 -498.28,41.06 -40.59,10.53 -80.44,22.86 -119.42,36.96 l 242.95,-132.17 c 38.98,-14.1 78.83,-26.42 119.42,-36.96" /><path
         id="path48"
         style="fill:#009ac4;fill-opacity:1;fill-rule:nonzero;stroke:none"
         d="m 1747.28,3132.81 -687.26,-96.59 242.96,-132.17 687.25,96.59 -242.95,132.17" /><path
         id="path50"
         style="fill:#009ac4;fill-opacity:1;fill-rule:nonzero;stroke:none"
         d="m 2119.07,4066.42 c -101.92,55.44 -194.59,122.42 -277.32,200.08 l -242.95,132.16 c 82.72,-77.66 175.4,-144.64 277.32,-200.08 l 242.95,-132.16" /><path
         id="path52"
         style="fill:#0082a6;fill-opacity:1;fill-rule:nonzero;stroke:none"
         d="m 3828.09,5197.91 c 110.3,-28.63 217.02,-68.17 318.88,-118.28 l -242.96,132.16 c -101.85,50.11 -208.57,89.66 -318.87,118.28 -218.22,56.63 -450.45,70.51 -686.72,38.97 -4.44,-0.53 -9.05,-1.08 -16.31,-2.1 -5.21,-0.74 -10.07,-1.51 -16.22,-2.56 -152.67,-22.75 -303.58,-63.77 -450.16,-121.77 -42.63,-16.86 -84.75,-35.69 -126.61,-55.39 l -1.71,-0.8 c -112.93,-53.33 -222.7,-116.75 -328.02,-189.62 -84.48,-58.45 -166.1,-122.99 -244.18,-193.28 -62.04,-55.85 -121.84,-115.32 -179.08,-178.27 l -73.22,-84.18 c -46.72,-56.03 -91.01,-113.94 -132.78,-173.5 -60.14,-85.74 -115.06,-174.9 -164.47,-266.75 -59.4,-110.41 -110.84,-224.71 -153.85,-341.69 C 909.805,3481.67 855.277,3189.21 854.738,2898.19 853.648,2311.52 1072.04,1780.68 1455.5,1423.1 l 74.66,-61.36 c 82.3,-67.64 169.86,-126.66 261.86,-176.71 l 242.95,-132.16 c -92,50.05 -179.55,109.07 -261.86,176.7 l -74.66,61.37 c -383.46,357.57 -601.85,888.42 -600.76,1475.08 0.54,291.03 55.07,583.49 157.07,860.95 43.01,116.97 94.45,231.28 153.85,341.69 49.41,91.85 104.33,181 164.47,266.75 41.77,59.56 86.06,117.47 132.78,173.5 l 73.22,84.17 c 57.24,62.95 117.05,122.43 179.08,178.27 78.08,70.3 159.7,134.83 244.18,193.28 9.25,6.4 18.57,12.63 27.88,18.89 -37.3,-55.13 -73.14,-114.15 -107.13,-177.33 -50.66,-94.16 -101.6,-196.96 -143.69,-307.53 l 247.15,-132.17 c 42.09,110.57 88.83,213.38 139.49,307.54 39.21,72.88 80.77,140.58 124.34,202.69 10.51,14.98 21.13,29.63 31.87,43.96 l -211.07,114.82 c 71.45,43.83 144.61,83.54 219.19,118.75 l 1.7,0.81 c 41.87,19.7 83.99,38.53 126.61,55.38 146.58,58.01 297.49,99.02 450.16,121.77 6.15,1.06 11.01,1.83 16.22,2.56 7.26,1.02 11.87,1.58 16.31,2.11 236.27,31.54 468.5,17.65 686.72,-38.97" /><path
         id="path54"
         style="fill:#0082a6;fill-opacity:1;fill-rule:nonzero;stroke:none"
         d="m 4558.65,2663.69 c -38.71,-105.31 -85.01,-208.21 -138.47,-307.61 -44.49,-82.7 -93.93,-162.97 -148.08,-240.17 -35.9,-51.19 -73.88,-101.03 -113.85,-149.34 l 242.95,-132.16 c 39.97,48.31 77.95,98.15 113.85,149.34 54.15,77.2 103.6,157.47 148.08,240.17 53.46,99.39 99.77,202.3 138.47,307.61 78.99,214.94 126.33,439.88 138.29,665.4 l -242.95,132.16 c -11.96,-225.52 -59.3,-450.46 -138.29,-665.4" /><path
         id="path56"
         style="fill:#0082a6;fill-opacity:1;fill-rule:nonzero;stroke:none"
         d="m 3773.45,1966.58 c 85.27,-46.52 159.78,-99.93 229.49,-164.03 l 246.44,-134.12 c -69.71,64.1 -147.71,119.47 -232.98,165.99 l -242.95,132.16" /><path
         id="path58"
         style="fill:#0082a6;fill-opacity:1;fill-rule:nonzero;stroke:none"
         d="m 4050.37,3071.91 -242.95,132.17 c -9.32,-329.48 -57.55,-650.9 -141.49,-942.13 l 242.95,-132.17 c 83.94,291.24 132.17,612.66 141.49,942.13" /><path
         id="path60"
         style="fill:#0082a6;fill-opacity:1;fill-rule:nonzero;stroke:none"
         d="m 2773.76,1214.69 242.95,-132.16 1.64,881.48 -242.95,132.16 -1.64,-881.48" /><path
         id="path62"
         style="fill:#0082a6;fill-opacity:1;fill-rule:nonzero;stroke:none"
         d="m 4406.39,4626.94 -119.72,65.12 c 6.63,-19.22 5.84,-40.58 -2.39,-59.28 246.27,-287.65 392.16,-667.94 413.06,-1085.37 l 242.96,-132.16 c -24.13,481.77 -214.61,914.19 -533.91,1211.69" /><path
         id="path64"
         style="fill:#0082a6;fill-opacity:1;fill-rule:nonzero;stroke:none"
         d="m 3912.71,4192.98 -171.48,93.28 c -9.34,-18.36 -25.67,-32.94 -49.08,-38.04 68.94,-249.17 108.34,-529.72 115.67,-825.82 l 242.96,-132.17 c -8.1,326.95 -55.17,635.06 -138.07,902.75" /><path
         id="path66"
         style="fill:#0082a6;fill-opacity:1;fill-rule:nonzero;stroke:none"
         d="m 4105.05,4845.02 -242.95,132.16 c 10.59,-5.76 21.12,-11.63 31.54,-17.66 7.93,-4.59 15.6,-9.59 23.36,-14.31 13.82,-8.37 27.72,-16.74 41.27,-25.62 8.7,-5.68 17.14,-11.69 25.75,-17.47 9.38,-6.52 18.84,-13.02 28.13,-19.64 l 242.96,-132.16 c -9.29,6.61 -18.76,13.12 -28.14,19.63 -8.61,5.79 -17.05,11.8 -25.74,17.48 -13.55,8.88 -27.45,17.24 -41.27,25.62 -7.76,4.71 -15.43,9.71 -23.36,14.31 -10.42,6.02 -20.96,11.9 -31.55,17.66" /><path
         id="path68"
         style="fill:#0082a6;fill-opacity:1;fill-rule:nonzero;stroke:none"
         d="m 2775.8,2314.67 242.95,-132.17 1.39,744.62 -242.96,132.17 -1.38,-744.62" /><path
         id="path70"
         style="fill:#0082a6;fill-opacity:1;fill-rule:nonzero;stroke:none"
         d="m 2221.57,1582.17 -140.11,76.22 c -9.09,-22.69 -28.02,-40.96 -56.78,-45.51 72.22,-148.32 155.8,-272.59 247.81,-369.96 l 242.95,-132.17 c -112.28,118.83 -212.03,277.65 -293.87,471.42" /><path
         id="path72"
         style="fill:#0082a6;fill-opacity:1;fill-rule:nonzero;stroke:none"
         d="m 2777.59,3277.61 242.95,-132.17 1.39,744.54 -242.96,132.16 -1.38,-744.53" /><path
         id="path74"
         style="fill:#0082a6;fill-opacity:1;fill-rule:nonzero;stroke:none"
         d="m 3403.87,4961.83 -242.95,132.16 c 169.49,-92.2 323.07,-290.17 439.04,-573.2 l 242.96,-132.16 c -115.98,283.02 -269.56,481 -439.05,573.2" /><path
         id="path76"
         style="fill:#0082a6;fill-opacity:1;fill-rule:nonzero;stroke:none"
         d="m 1905.65,1911.56 242.96,-132.17 c -96,296.17 -150.25,639.2 -158.78,1002.93 l -242.96,132.17 c 8.54,-363.73 62.79,-706.76 158.78,-1002.93" /><path
         id="path78"
         style="fill:#0082a6;fill-opacity:1;fill-rule:nonzero;stroke:none"
         d="m 2779.38,4240.64 242.95,-132.16 1.64,881.48 -242.95,132.16 -1.64,-881.48" /><path
         id="path80"
         style="fill:#0082a6;fill-opacity:1;fill-rule:nonzero;stroke:none"
         d="m 2152.82,4048.65 -242.95,132.17 c -97.14,-323.32 -152.7,-681.78 -162.59,-1048.01 l 242.95,-132.17 c 9.9,366.24 65.45,724.7 162.59,1048.01" /><path
         id="path82"
         style="fill:#00b9ec;fill-opacity:1;fill-rule:nonzero;stroke:none"
         d="m 2021.62,4459.82 c -9.41,-9.06 -18.82,-18.22 -28.05,-27.34 69.71,-64 147.62,-119.48 232.98,-165.99 82.52,216.78 182.91,403.73 295.7,554.19 -9.83,-5.07 -19.57,-10.22 -29.31,-15.46 -10.76,-5.83 -21.45,-11.58 -32.13,-17.5 -14.1,-7.97 -28.12,-16.21 -42.05,-24.52 -10.25,-6.06 -20.5,-12.01 -30.59,-18.31 -14.61,-8.96 -28.96,-18.34 -43.33,-27.74 -9.31,-6.01 -18.71,-11.94 -28.03,-18.12 -16.23,-10.94 -32.22,-22.4 -48.2,-33.87 -7.18,-5.06 -14.45,-9.95 -21.54,-15.19 -22.92,-16.76 -45.57,-34.03 -67.96,-51.84 -4.96,-3.91 -9.66,-8.08 -14.62,-12 -17.44,-14.15 -34.88,-28.49 -51.98,-43.24 -8.12,-6.94 -15.99,-14.22 -24.02,-21.34 -13.68,-12.15 -27.37,-24.2 -40.79,-36.78 -8.81,-8.14 -17.44,-16.64 -26.08,-24.95 M 4221.24,1641.07 c 9.42,9.07 18.82,18.13 28.14,27.36 -69.71,64.1 -147.71,119.47 -232.98,165.99 -82.52,-216.78 -182.91,-403.73 -295.7,-554.19 9.92,5.17 19.75,10.33 29.48,15.57 10.68,5.74 21.28,11.47 31.88,17.38 14.26,7.99 28.36,16.33 42.38,24.66 10.09,6.02 20.25,11.88 30.26,18.08 14.78,9.07 29.31,18.57 43.83,28.08 9.15,5.98 18.38,11.7 27.44,17.85 16.58,11.18 32.9,22.78 49.14,34.46 6.93,4.85 13.85,9.5 20.69,14.52 22.99,16.86 45.73,34.16 68.13,52.04 4.52,3.59 8.81,7.33 13.24,10.99 17.96,14.41 35.74,29.07 53.35,44.17 7.96,6.92 15.74,14.09 23.6,21.1 13.85,12.17 27.63,24.42 41.22,37.02 8.72,8.13 17.27,16.62 25.9,24.92 M 2485.67,1118.09 c 9.89,-2.58 19.79,-4.96 29.78,-7.34 -112.29,118.83 -212.04,277.65 -293.88,471.42 -85.58,-70.53 -163.74,-147.94 -233.72,-231.58 9.29,-6.61 18.75,-13.12 28.21,-19.62 8.53,-5.8 16.97,-11.81 25.67,-17.49 13.55,-8.78 27.27,-17.17 41.09,-25.46 7.85,-4.79 15.61,-9.78 23.54,-14.47 17.47,-10.17 35.21,-19.75 53.04,-29.12 4.43,-2.42 8.86,-5.03 13.29,-7.35 22.44,-11.5 45.04,-22.51 67.98,-32.82 6.82,-3.19 13.81,-5.9 20.72,-8.89 16.21,-7.12 32.41,-14.15 48.87,-20.59 9.14,-3.6 18.34,-6.82 27.56,-10.22 14.42,-5.34 28.91,-10.77 43.59,-15.7 9.98,-3.39 20.13,-6.39 30.29,-9.57 13.99,-4.39 27.98,-8.78 42.14,-12.78 10.58,-2.93 21.24,-5.68 31.83,-8.42 m 1271.7,3864.75 c -9.98,2.56 -19.87,4.94 -29.86,7.32 112.28,-118.83 212.03,-277.65 293.88,-471.42 85.57,70.53 163.73,147.94 233.72,231.58 -9.29,6.61 -18.75,13.12 -28.14,19.63 -8.61,5.79 -17.05,11.8 -25.74,17.48 -13.55,8.88 -27.45,17.24 -41.27,25.62 -7.76,4.71 -15.43,9.71 -23.37,14.31 -17.56,10.16 -35.47,19.9 -53.37,29.35 -4.35,2.34 -8.61,4.87 -12.96,7.11 -22.44,11.6 -45.12,22.51 -68.06,32.91 -6.66,3.03 -13.48,5.66 -20.22,8.68 -16.37,7.1 -32.74,14.19 -49.38,20.71 -9.04,3.6 -18.17,6.75 -27.3,10.16 -14.5,5.43 -29.09,10.84 -43.76,15.77 -9.98,3.39 -20.05,6.41 -30.11,9.5 -14.08,4.47 -28.16,8.85 -42.4,12.84 -10.49,2.94 -21.08,5.7 -31.66,8.45 m -735.04,-874.36 1.64,881.47 c -238.58,-90.92 -462.42,-380.36 -619.34,-803.46 189.89,-68.67 400.35,-95.29 617.7,-78.01 m 203.91,909.9 -1.64,-881.48 c 217.41,43.83 428.07,129.63 618.32,251.73 -155.43,379.3 -378.4,605.84 -616.68,629.75 m -7.26,-3907.43 c 238.5,90.92 462.43,380.37 619.34,803.47 -189.89,68.67 -400.34,95.29 -617.7,78.01 l -1.64,-881.48 m -202.27,-28.42 1.64,881.48 c -217.41,-43.83 -428.07,-129.63 -618.31,-251.73 155.42,-379.3 378.39,-605.84 616.67,-629.75 m 3.83,2062.91 1.39,744.54 c -241.19,-20.64 -475.45,6.97 -687.86,81.13 -83.93,-291.22 -132.17,-612.64 -141.49,-942.03 l 827.96,116.36 m 203.66,772.97 -1.38,-744.54 827.96,116.36 c -8.1,326.95 -55.17,635.06 -138.07,902.75 -212.79,-133.92 -447.28,-227.41 -688.51,-274.57 m -1.79,-962.86 -1.38,-744.62 c 241.18,20.63 475.44,-6.88 687.85,-81.15 83.94,291.24 132.17,612.66 141.49,942.13 l -827.96,-116.36 m -203.66,-773.05 1.39,744.62 -827.96,-116.36 c 8.09,-327.03 55.16,-635.05 138.06,-902.84 212.8,134.02 447.28,227.41 688.51,274.58 M 4940.3,3415.25 c -24.13,481.77 -214.61,914.2 -533.91,1211.69 -92.14,-112 -196.47,-214.28 -312.04,-305.42 95.99,-296.17 150.24,-639.21 158.78,-1002.85 l 687.17,96.58 M 4401.2,1834.41 c 320.57,387.42 512.76,873.62 538.69,1362.52 l -687.17,-96.58 c -9.89,-366.32 -65.45,-724.78 -162.59,-1048.09 115.3,-58.7 219.31,-131.7 311.07,-217.85 M 1841.75,4266.5 C 1521.18,3879.08 1328.99,3392.88 1302.98,2904.05 l 687.25,96.59 c 9.9,366.24 65.45,724.7 162.59,1048.01 -115.29,58.7 -219.3,131.7 -311.07,217.85 M 1302.57,2685.73 c 24.21,-481.84 214.7,-914.27 533.99,-1211.76 92.14,112 196.47,214.28 312.05,305.42 -96,296.17 -150.24,639.2 -158.78,1002.93 l -687.26,-96.59 m 3842.69,649.14 C 5144.17,2748.21 4923.61,2155.67 4537.09,1692 l -73.22,-84.17 c -219.58,-241.48 -476.86,-431.87 -752.99,-561.98 -41.86,-19.7 -83.98,-38.52 -126.61,-55.381 -146.59,-58.008 -297.49,-99.02 -450.24,-121.789 -6.06,-1.028 -11.27,-1.86 -16.65,-2.621 -5.3,-0.739 -10.51,-1.379 -15.8,-2.028 -367.31,-49.039 -724.86,11.731 -1035.19,172.189 -103.53,53.44 -201.65,118.06 -293.28,193.35 l -74.66,61.37 c -383.46,357.57 -601.85,888.42 -600.76,1475.08 1.09,586.68 221.57,1179.2 608.17,1642.89 l 73.22,84.17 c 219.58,241.48 476.87,431.87 752.99,561.98 41.87,19.7 83.99,38.53 126.61,55.38 146.58,58.01 297.49,99.02 450.16,121.77 6.15,1.06 11.01,1.83 16.22,2.56 7.26,1.02 11.87,1.58 16.31,2.11 367.31,49.03 724.87,-11.72 1035.19,-172.18 103.44,-53.47 201.66,-118.07 293.28,-193.36 l 74.66,-61.37 c 383.38,-357.49 601.85,-888.42 600.76,-1475.1" /></g></g></svg>