<?xml version="1.0" encoding="UTF-8" standalone="no"?>
<svg
   xmlns:dc="http://purl.org/dc/elements/1.1/"
   xmlns:cc="http://creativecommons.org/ns#"
   xmlns:rdf="http://www.w3.org/1999/02/22-rdf-syntax-ns#"
   xmlns:svg="http://www.w3.org/2000/svg"
   xmlns="http://www.w3.org/2000/svg"
   viewBox="0 0 6624.2266 6624.2266"
   height="6624.2266"
   width="6624.2266"
   xml:space="preserve"
   id="svg2"
   version="1.1"><metadata
     id="metadata8"><rdf:RDF><cc:Work
         rdf:about=""><dc:format>image/svg+xml</dc:format><dc:type
           rdf:resource="http://purl.org/dc/dcmitype/StillImage" /></cc:Work></rdf:RDF></metadata><defs
     id="defs6" /><g
     transform="matrix(1.3333333,0,0,-1.3333333,0,6624.2267)"
     id="g10"><g
       transform="scale(0.1)"
       id="g12"><g
         transform="scale(3.04796)"
         id="g14"><path
           id="path16"
           style="fill:#ffffff;fill-opacity:1;fill-rule:nonzero;stroke:none"
           d="M 0,0 V 16300 H 16300 V 0 H 0" /></g><g
         transform="scale(1.64039)"
         id="g18"><path
           id="path20"
           style="fill:#148acb;fill-opacity:1;fill-rule:nonzero;stroke:none"
           d="m 12654.5,14805.9 c 649.4,192.4 1360.2,304.7 2098.1,332.6 V 16300 h -2322.2 c 28.4,-524.2 105.6,-1027.1 224.1,-1494.1" /></g><g
         transform="scale(1.48466)"
         id="g22"><path
           id="path24"
           style="fill:#148acb;fill-opacity:1;fill-rule:nonzero;stroke:none"
           d="M 16300,13201.4 V 15865 c -729.9,-30.5 -1427.2,-141.2 -2061.3,-329.3 468.5,-1229.4 1213.8,-2107.4 2061.3,-2334.3" /></g><g
         transform="scale(2.16799)"
         id="g26"><path
           id="path28"
           style="fill:#148acb;fill-opacity:1;fill-rule:nonzero;stroke:none"
           d="m 9767.91,14744.1 c 431.99,-127.9 905.69,-205.6 1394.49,-228.7 V 16300 c -570.6,-152.8 -1071.8,-737 -1394.49,-1555.9" /></g><g
         transform="scale(1.8859)"
         id="g30"><path
           id="path32"
           style="fill:#148acb;fill-opacity:1;fill-rule:nonzero;stroke:none"
           d="m 10809.6,14857.3 h 2022.5 v 1149.4 c -638.3,27.9 -1252.9,125.5 -1811.9,293.3 -116.9,-447.3 -190.9,-933.4 -210.6,-1442.7" /></g><g
         transform="scale(1.95638)"
         id="g34"><path
           id="path36"
           style="fill:#148acb;fill-opacity:1;fill-rule:nonzero;stroke:none"
           d="m 9997.8,15943.1 c -244.58,104.2 -475.93,222.9 -685.55,356.9 -384.59,-572.9 -622.22,-1250.1 -671.91,-1977.9 h 1124.74 c 20.29,576.7 99.77,1121.9 232.72,1621" /></g><g
         transform="scale(2.01096)"
         id="g38"><path
           id="path40"
           style="fill:#148acb;fill-opacity:1;fill-rule:nonzero;stroke:none"
           d="M 15204.8,13933.3 H 16300 c -49,709.2 -280.9,1366.9 -655.4,1925.3 -203.9,-130.4 -428.3,-246.2 -666.6,-347.3 130.1,-485.5 207.4,-1016.9 226.8,-1578" /></g><g
         transform="scale(1.38753)"
         id="g42"><path
           id="path44"
           style="fill:#148acb;fill-opacity:1;fill-rule:nonzero;stroke:none"
           d="m 13662.9,15939.9 c 433.7,-476.7 941.4,-883.3 1512.8,-1192.7 -320.2,444.6 -594.1,968.1 -816.6,1552.8 -245.2,-108 -480.1,-227 -696.2,-360.1" /></g><g
         transform="scale(2.11515)"
         id="g46"><path
           id="path48"
           style="fill:#148acb;fill-opacity:1;fill-rule:nonzero;stroke:none"
           d="m 9955.24,16300 c -361.53,-195.5 -684.25,-451.2 -962.63,-749.6 137.58,-83.2 287.78,-156.4 444.09,-225.3 142.44,366.4 316.57,694.3 518.54,974.9" /></g><g
         transform="scale(1.64039)"
         id="g50"><path
           id="path52"
           style="fill:#148acb;fill-opacity:1;fill-rule:nonzero;stroke:none"
           d="m 11649.9,16300 h -1340.6 c 73.5,-805.8 346.1,-1554.6 767.2,-2199.9 254.5,162 533.4,306.4 830.9,432.4 -141,547.6 -228.7,1142.7 -257.5,1767.5" /></g><g
         transform="scale(1.797)"
         id="g54"><path
           id="path56"
           style="fill:#148acb;fill-opacity:1;fill-rule:nonzero;stroke:none"
           d="m 16300,14879.4 h -2121 v -1062.5 c 675.1,-29.8 1322.1,-137.2 1911.5,-317.8 110.4,431.3 183.2,895.3 209.5,1380.3" /></g><g
         transform="scale(2.01037)"
         id="g58"><path
           id="path60"
           style="fill:#148acb;fill-opacity:1;fill-rule:nonzero;stroke:none"
           d="m 14990.6,11838.9 c 240.1,-105.3 464.5,-222.8 670.2,-357.3 351.4,531.6 579,1151.5 639.2,1818.6 h -1093.2 c -24.2,-517.3 -97.4,-1009.1 -216.2,-1461.3" /></g><g
         transform="scale(1.88256)"
         id="g62"><path
           id="path64"
           style="fill:#148acb;fill-opacity:1;fill-rule:nonzero;stroke:none"
           d="m 15204.6,10869.4 c 411.7,222.9 779.7,516.4 1095.4,857.5 -155.3,96.4 -324.4,184.8 -503,265.1 -161.1,-421.8 -360,-801.1 -592.4,-1122.6" /></g><g
         transform="scale(2.44239)"
         id="g66"><path
           id="path68"
           style="fill:#148acb;fill-opacity:1;fill-rule:nonzero;stroke:none"
           d="m 10170.4,7461.33 c -2086.93,0 -3785.64,1697.88 -3785.64,3785.07 0,2088.4 1698.71,3785.7 3785.64,3785.7 2087.3,0 3786.3,-1697.3 3786.3,-3785.7 0,-2087.19 -1699,-3785.07 -3786.3,-3785.07 z m 0,8838.67 c -2790.26,0 -5052.67,-2262.2 -5052.67,-5052.7 0,-2790.84 2262.41,-5053.01 5052.67,-5053.01 2790.9,0 5053.4,2262.17 5053.4,5053.01 0,2790.5 -2262.5,5052.7 -5053.4,5052.7" /></g><g
         transform="scale(2.16799)"
         id="g70"><path
           id="path72"
           style="fill:#148acb;fill-opacity:1;fill-rule:nonzero;stroke:none"
           d="m 11752.7,16300 v -1784.6 c 494.9,22.5 966.7,98.2 1396.1,225.8 -322.1,821.1 -825.1,1405.7 -1396.1,1558.8" /></g><g
         transform="scale(2.11515)"
         id="g74"><path
           id="path76"
           style="fill:#148acb;fill-opacity:1;fill-rule:nonzero;stroke:none"
           d="m 14495.4,15550.4 c -278.1,298.4 -600.8,554.1 -962.7,749.6 202.6,-281.6 377.1,-610.8 519.5,-977.2 155.7,68.6 305.2,144.4 443.2,227.6" /></g><g
         transform="scale(1.88598)"
         id="g78"><path
           id="path80"
           style="fill:#148acb;fill-opacity:1;fill-rule:nonzero;stroke:none"
           d="m 15322.6,16300 c -561.2,-167.7 -1174.7,-266.1 -1812.6,-294 v -1149.3 h 2023.2 c -20.4,509.6 -94.1,995.4 -210.6,1443.3" /></g><g
         transform="scale(1.75013)"
         id="g82"><path
           id="path84"
           style="fill:#148acb;fill-opacity:1;fill-rule:nonzero;stroke:none"
           d="m 14558.8,11198.9 c 714.7,191.7 1343.3,928 1741.2,1960.8 -537.1,163.4 -1128.2,265.1 -1741.2,295.3 v -2256.1" /></g></g></g></svg>